<svg width="100" height="100" viewBox="0 0 100 100" fill="none" xmlns="http://www.w3.org/2000/svg">
<path d="M100 50C100 77.6142 77.6142 100 50 100C22.3858 100 0 77.6142 0 50C0 22.3858 22.3858 0 50 0C77.6142 0 100 22.3858 100 50Z" fill="#CCCCCC"/>
<path d="M42.5 20C42.5 15.8579 45.8579 12.5 50 12.5C54.1421 12.5 57.5 15.8579 57.5 20V42.5H42.5V20Z" fill="#F0F0F0"/>
<path d="M42.5 57.5H57.5V80C57.5 84.1421 54.1421 87.5 50 87.5C45.8579 87.5 42.5 84.1421 42.5 80V57.5Z" fill="#F0F0F0"/>
<path d="M12.5 50C12.5 45.8579 15.8579 42.5 20 42.5H80C84.1421 42.5 87.5 45.8579 87.5 50C87.5 54.1421 84.1421 57.5 80 57.5H20C15.8579 57.5 12.5 54.1421 12.5 50Z" fill="#F0F0F0"/>
</svg>
