<svg width="600" height="90" viewBox="0 0 600 90" fill="none" xmlns="http://www.w3.org/2000/svg">
<path d="M0 0H411.048V90H0V0Z" fill="#B70808" fill-opacity="0.6"/>
<path d="M508.624 15.69V56.25H499.356V24.93L490.687 30.27L486.561 23.97L500.193 15.69H508.624Z" fill="#B70808" fill-opacity="0.7"/>
<path d="M531.036 14.85C535.979 14.85 539.746 16.67 542.336 20.31C544.967 23.95 546.283 29.19 546.283 36.03C546.283 42.83 544.967 48.07 542.336 51.75C539.746 55.43 535.979 57.27 531.036 57.27C526.094 57.27 522.307 55.43 519.677 51.75C517.086 48.07 515.79 42.83 515.79 36.03C515.79 29.19 517.086 23.95 519.677 20.31C522.307 16.67 526.094 14.85 531.036 14.85ZM531.036 21.87C529.681 21.87 528.605 22.31 527.808 23.19C527.011 24.07 526.413 25.53 526.014 27.57C525.655 29.61 525.476 32.43 525.476 36.03C525.476 39.63 525.655 42.47 526.014 44.55C526.413 46.59 527.011 48.05 527.808 48.93C528.605 49.81 529.681 50.25 531.036 50.25C532.392 50.25 533.468 49.83 534.265 48.99C535.062 48.11 535.64 46.65 535.999 44.61C536.397 42.53 536.597 39.67 536.597 36.03C536.597 32.39 536.397 29.55 535.999 27.51C535.64 25.43 535.062 23.97 534.265 23.13C533.468 22.29 532.392 21.87 531.036 21.87Z" fill="#B70808" fill-opacity="0.7"/>
<path d="M575.637 22.47H560.988V30.99C562.862 30.11 564.855 29.67 566.967 29.67C569.199 29.67 571.192 30.19 572.946 31.23C574.7 32.27 576.075 33.79 577.071 35.79C578.068 37.79 578.566 40.15 578.566 42.87C578.566 45.71 577.908 48.23 576.593 50.43C575.318 52.59 573.464 54.27 571.033 55.47C568.641 56.67 565.871 57.27 562.722 57.27C557.261 57.27 552.777 55.23 549.27 51.15L554.531 46.23C556.723 48.83 559.334 50.13 562.363 50.13C564.436 50.13 566.03 49.51 567.147 48.27C568.302 47.03 568.88 45.25 568.88 42.93C568.88 38.41 566.987 36.15 563.2 36.15C562.403 36.15 561.626 36.27 560.869 36.51C560.111 36.71 559.274 37.07 558.358 37.59H551.96V15.69H576.713L575.637 22.47Z" fill="#B70808" fill-opacity="0.7"/>
<path d="M600 15.69V56.25H590.733V24.93L582.063 30.27L577.938 23.97L591.57 15.69H600Z" fill="#B70808" fill-opacity="0.7"/>
<path d="M93.3602 34.95C94.6557 34.95 95.8016 35.14 96.7981 35.52C97.8145 35.9 98.7711 36.47 99.668 37.23L97.3362 40.02C96.7184 39.54 96.1105 39.18 95.5126 38.94C94.9148 38.7 94.277 38.58 93.5994 38.58C92.2043 38.58 91.0982 39.17 90.2811 40.35C89.4839 41.53 89.0853 43.35 89.0853 45.81C89.0853 48.23 89.4839 50.03 90.2811 51.21C91.0982 52.37 92.2243 52.95 93.6592 52.95C94.4165 52.95 95.1041 52.81 95.7219 52.53C96.3397 52.23 97.0074 51.81 97.7248 51.27L99.9071 54.09C99.1299 54.87 98.1832 55.51 97.0672 56.01C95.971 56.51 94.7553 56.76 93.42 56.76C91.5068 56.76 89.8427 56.34 88.4277 55.5C87.0127 54.66 85.9066 53.42 85.1094 51.78C84.3321 50.12 83.9435 48.13 83.9435 45.81C83.9435 43.55 84.3421 41.6 85.1393 39.96C85.9564 38.32 87.0725 37.08 88.4875 36.24C89.9224 35.38 91.5467 34.95 93.3602 34.95Z" fill="white" fill-opacity="0.7"/>
<path d="M109.882 34.95C112.831 34.95 115.123 35.9 116.758 37.8C118.412 39.7 119.239 42.38 119.239 45.84C119.239 48.1 118.86 50.05 118.103 51.69C117.365 53.33 116.289 54.59 114.874 55.47C113.479 56.33 111.815 56.76 109.882 56.76C107.949 56.76 106.285 56.33 104.889 55.47C103.494 54.61 102.418 53.37 101.661 51.75C100.923 50.11 100.555 48.14 100.555 45.84C100.555 43.6 100.923 41.66 101.661 40.02C102.418 38.38 103.494 37.13 104.889 36.27C106.285 35.39 107.949 34.95 109.882 34.95ZM109.882 38.55C108.467 38.55 107.411 39.13 106.713 40.29C106.035 41.43 105.697 43.28 105.697 45.84C105.697 48.4 106.045 50.26 106.743 51.42C107.44 52.58 108.487 53.16 109.882 53.16C111.317 53.16 112.373 52.59 113.051 51.45C113.748 50.29 114.097 48.42 114.097 45.84C114.097 43.26 113.748 41.4 113.051 40.26C112.353 39.12 111.297 38.55 109.882 38.55Z" fill="white" fill-opacity="0.7"/>
<path d="M128.877 35.46C131.607 35.46 133.73 36.03 135.244 37.17C136.759 38.31 137.516 40 137.516 42.24C137.516 44.58 136.769 46.35 135.274 47.55C133.8 48.73 131.817 49.32 129.325 49.32H127.083V56.25H122.181V35.46H128.877ZM128.907 45.78C130.063 45.78 130.94 45.51 131.538 44.97C132.155 44.41 132.464 43.5 132.464 42.24C132.464 40.06 131.249 38.97 128.817 38.97H127.083V45.78H128.907Z" fill="white" fill-opacity="0.7"/>
<path d="M152.811 35.46L152.302 38.97H145.008V43.95H151.376V47.4H145.008V52.71H152.811V56.25H140.106V35.46H152.811Z" fill="white" fill-opacity="0.7"/>
<path d="M171.805 56.25H165.557L159.578 40.14C159.777 41.72 159.927 43.12 160.026 44.34C160.146 45.54 160.206 46.97 160.206 48.63V56.25H155.841V35.46H161.939L168.068 51.6C167.629 48.86 167.41 46.28 167.41 43.86V35.46H171.805V56.25Z" fill="white" fill-opacity="0.7"/>
<path d="M186.784 56.25V47.34H180.566V56.25H175.664V35.46H180.566V43.5H186.784V35.46H191.687V56.25H186.784Z" fill="white" fill-opacity="0.7"/>
<path d="M206.485 56.25L205.409 51.78H199.37L198.324 56.25H193.242L199.49 35.46H205.439L211.687 56.25H206.485ZM200.207 48.21H204.572L202.39 39.03L200.207 48.21Z" fill="white" fill-opacity="0.7"/>
<path d="M221.883 34.95C224.554 34.95 226.856 35.8 228.789 37.5L226.307 40.11C225.57 39.55 224.883 39.15 224.245 38.91C223.627 38.65 222.909 38.52 222.092 38.52C220.558 38.52 219.332 39.13 218.415 40.35C217.499 41.55 217.04 43.38 217.04 45.84C217.04 48.5 217.389 50.39 218.086 51.51C218.784 52.61 219.87 53.16 221.345 53.16C222.381 53.16 223.318 52.93 224.155 52.47V47.76H221.465L220.986 44.28H228.908V54.57C227.832 55.27 226.646 55.81 225.351 56.19C224.055 56.57 222.76 56.76 221.465 56.76C218.316 56.76 215.944 55.84 214.35 54C212.755 52.14 211.958 49.42 211.958 45.84C211.958 43.56 212.387 41.6 213.244 39.96C214.121 38.32 215.306 37.08 216.801 36.24C218.316 35.38 220.01 34.95 221.883 34.95Z" fill="white" fill-opacity="0.7"/>
<path d="M248.057 49.35C248.057 50.77 247.748 52.04 247.13 53.16C246.532 54.28 245.625 55.16 244.409 55.8C243.194 56.44 241.709 56.76 239.955 56.76C237.324 56.76 235.322 56.09 233.946 54.75C232.571 53.41 231.884 51.61 231.884 49.35V35.46H236.786V49.14C236.786 50.48 237.036 51.48 237.534 52.14C238.052 52.78 238.859 53.1 239.955 53.1C241.071 53.1 241.878 52.78 242.377 52.14C242.895 51.48 243.154 50.48 243.154 49.14V35.46H248.057V49.35Z" fill="white" fill-opacity="0.7"/>
<path d="M264.36 35.46L263.852 38.97H256.558V43.95H262.925V47.4H256.558V52.71H264.36V56.25H251.655V35.46H264.36Z" fill="white" fill-opacity="0.7"/>
<path d="M283.354 56.25H277.106L271.127 40.14C271.326 41.72 271.476 43.12 271.576 44.34C271.695 45.54 271.755 46.97 271.755 48.63V56.25H267.39V35.46H273.489L279.617 51.6C279.179 48.86 278.959 46.28 278.959 43.86V35.46H283.354V56.25Z" fill="white" fill-opacity="0.7"/>
</svg>
