<svg width="620" height="90" viewBox="0 0 620 90" fill="none" xmlns="http://www.w3.org/2000/svg">
<path d="M206.586 0H620V90H206.586V0Z" fill="#B70808" fill-opacity="0.6"/>
<path d="M25.6888 90H15.6345L6.01329 64.224C6.334 66.752 6.57453 68.992 6.73488 70.944C6.92731 72.864 7.02352 75.152 7.02352 77.808V90H0V56.736H9.81369L19.6755 82.56C18.9699 78.176 18.6171 74.048 18.6171 70.176V56.736H25.6888V90Z" fill="#B70808" fill-opacity="0.7"/>
<path d="M57.6836 56.736L47.004 77.52V90H39.1146V77.568L28.435 56.736H37.046L43.2036 71.376L49.3612 56.736H57.6836Z" fill="#B70808" fill-opacity="0.7"/>
<path d="M78.3573 90V75.744H68.3512V90H60.4617V56.736H68.3512V69.6H78.3573V56.736H86.2467V90H78.3573Z" fill="#B70808" fill-opacity="0.7"/>
<path d="M110.06 90L108.328 82.848H98.6108L96.927 90H88.749L98.8032 56.736H108.376L118.431 90H110.06ZM99.9577 77.136H106.981L103.47 62.448L99.9577 77.136Z" fill="#B70808" fill-opacity="0.7"/>
<path d="M144.998 56.736L135.714 90H125.9L116.279 56.736H124.601L130.951 83.856L136.916 56.736H144.998Z" fill="#B70808" fill-opacity="0.7"/>
<path d="M173.155 90H163.101L153.48 64.224C153.8 66.752 154.041 68.992 154.201 70.944C154.394 72.864 154.49 75.152 154.49 77.808V90H147.466V56.736H157.28L167.142 82.56C166.436 78.176 166.084 74.048 166.084 70.176V56.736H173.155V90Z" fill="#B70808" fill-opacity="0.7"/>
</svg>
