<svg width="24" height="25" viewBox="0 0 24 25" fill="none" xmlns="http://www.w3.org/2000/svg">
<g clip-path="url(#clip0_309_216)">
<path d="M17.5 4.67004C15.55 4.67004 13.45 5.07088 12 6.17318C10.55 5.07088 8.45 4.67004 6.5 4.67004C5.05 4.67004 3.51 4.8905 2.22 5.46169C1.49 5.79238 1 6.50386 1 7.31556V18.6191C1 19.9218 2.22 20.8838 3.48 20.5632C4.46 20.3126 5.5 20.2024 6.5 20.2024C8.06 20.2024 9.72 20.4629 11.06 21.1243C11.66 21.425 12.34 21.425 12.93 21.1243C14.27 20.4529 15.93 20.2024 17.49 20.2024C18.49 20.2024 19.53 20.3126 20.51 20.5632C21.77 20.8938 22.99 19.9318 22.99 18.6191V7.31556C22.99 6.50386 22.5 5.79238 21.77 5.46169C20.49 4.8905 18.95 4.67004 17.5 4.67004ZM21 17.4266C21 18.0579 20.42 18.5189 19.8 18.4087C19.05 18.2684 18.27 18.2082 17.5 18.2082C15.8 18.2082 13.35 18.8596 12 19.7114V8.17735C13.35 7.32558 15.8 6.67422 17.5 6.67422C18.42 6.67422 19.33 6.76441 20.2 6.9548C20.66 7.05501 21 7.46587 21 7.93685V17.4266Z" fill="url(#paint0_linear_309_216)"/>
<path d="M13.98 11.1936C13.66 11.1936 13.37 10.9932 13.27 10.6725C13.14 10.2817 13.36 9.8508 13.75 9.73055C15.29 9.2295 17.28 9.06917 19.11 9.27961C19.52 9.32971 19.82 9.70049 19.77 10.1113C19.72 10.5222 19.35 10.8228 18.94 10.7727C17.32 10.5823 15.55 10.7326 14.21 11.1635C14.13 11.1736 14.05 11.1936 13.98 11.1936Z" fill="url(#paint1_linear_309_216)"/>
<path d="M13.98 13.8592C13.66 13.8592 13.37 13.6588 13.27 13.3382C13.14 12.9473 13.36 12.5164 13.75 12.3962C15.28 11.8952 17.28 11.7348 19.11 11.9453C19.52 11.9954 19.82 12.3661 19.77 12.777C19.72 13.1878 19.35 13.4885 18.94 13.4384C17.32 13.248 15.55 13.3983 14.21 13.8292C14.13 13.8492 14.05 13.8592 13.98 13.8592Z" fill="url(#paint2_linear_309_216)"/>
<path d="M13.98 16.5248C13.66 16.5248 13.37 16.3244 13.27 16.0037C13.14 15.6129 13.36 15.182 13.75 15.0617C15.28 14.5607 17.28 14.4003 19.11 14.6108C19.52 14.6609 19.82 15.0317 19.77 15.4425C19.72 15.8534 19.35 16.144 18.94 16.1039C17.32 15.9135 15.55 16.0638 14.21 16.4947C14.13 16.5148 14.05 16.5248 13.98 16.5248Z" fill="url(#paint3_linear_309_216)"/>
</g>
<defs>
<linearGradient id="paint0_linear_309_216" x1="11.995" y1="4.67004" x2="11.995" y2="21.3498" gradientUnits="userSpaceOnUse">
<stop stop-color="#B8B8B8"/>
<stop offset="1" stop-color="white"/>
</linearGradient>
<linearGradient id="paint1_linear_309_216" x1="16.504" y1="9.18933" x2="16.504" y2="11.1936" gradientUnits="userSpaceOnUse">
<stop stop-color="#B8B8B8"/>
<stop offset="1" stop-color="white"/>
</linearGradient>
<linearGradient id="paint2_linear_309_216" x1="16.504" y1="11.855" x2="16.504" y2="13.8592" gradientUnits="userSpaceOnUse">
<stop stop-color="#B8B8B8"/>
<stop offset="1" stop-color="white"/>
</linearGradient>
<linearGradient id="paint3_linear_309_216" x1="16.504" y1="14.5205" x2="16.504" y2="16.5248" gradientUnits="userSpaceOnUse">
<stop stop-color="#B8B8B8"/>
<stop offset="1" stop-color="white"/>
</linearGradient>
<clipPath id="clip0_309_216">
<rect width="24" height="24.0501" fill="white" transform="translate(0 0.160645)"/>
</clipPath>
</defs>
</svg>
