<svg width="24" height="25" viewBox="0 0 24 25" fill="none" xmlns="http://www.w3.org/2000/svg">
<g clip-path="url(#clip0_309_231)">
<path d="M12.65 16.2183C12.79 15.8576 12.7 15.4467 12.42 15.1661L10.33 13.1018L10.36 13.0718C12.1 11.1277 13.34 8.89305 14.07 6.52813H16.01C16.55 6.52813 17 6.07719 17 5.53606V5.51602C17 4.97489 16.55 4.52395 16.01 4.52395H10V3.52186C10 2.97071 9.55 2.51978 9 2.51978C8.45 2.51978 8 2.97071 8 3.52186V4.52395H1.99C1.45 4.52395 1 4.97489 1 5.51602C1 6.06717 1.45 6.50808 1.99 6.50808H12.17C11.5 8.45213 10.44 10.286 9 11.8893C8.19 10.9974 7.51 10.0254 6.94 9.00328C6.78 8.71268 6.49 8.5323 6.16 8.5323C5.47 8.5323 5.03 9.28387 5.37 9.88512C6 11.0175 6.77 12.0997 7.67 13.1018L3.3 17.4208C2.9 17.8116 2.9 18.453 3.3 18.8438C3.69 19.2346 4.32 19.2346 4.72 18.8438L9 14.5448L11.02 16.569C11.53 17.0801 12.4 16.8897 12.65 16.2183V16.2183ZM17.5 10.5365C16.9 10.5365 16.36 10.9072 16.15 11.4784L12.48 21.2989C12.24 21.9102 12.7 22.5615 13.35 22.5615C13.74 22.5615 14.09 22.321 14.23 21.9503L15.12 19.5553H19.87L20.77 21.9503C20.91 22.311 21.26 22.5615 21.65 22.5615C22.3 22.5615 22.76 21.9102 22.53 21.2989L18.86 11.4784C18.64 10.9072 18.1 10.5365 17.5 10.5365V10.5365ZM15.88 17.5511L17.5 13.2121L19.12 17.5511H15.88V17.5511Z" fill="url(#paint0_linear_309_231)"/>
</g>
<defs>
<linearGradient id="paint0_linear_309_231" x1="11.795" y1="2.51978" x2="11.795" y2="22.5615" gradientUnits="userSpaceOnUse">
<stop stop-color="#B8B8B8"/>
<stop offset="1" stop-color="white"/>
</linearGradient>
<clipPath id="clip0_309_231">
<rect width="24" height="24.0501" fill="white" transform="translate(0 0.515625)"/>
</clipPath>
</defs>
</svg>
