<svg width="250" height="42" viewBox="0 0 250 42" fill="none" xmlns="http://www.w3.org/2000/svg">
<path d="M61.8401 37.4621H73.4552C77.8013 37.4621 81.2292 36.0619 83.7389 33.2614C86.2486 30.4609 87.5035 26.5892 87.5035 21.6463V19.764C87.5035 14.8058 86.241 10.9494 83.7159 8.19483C81.2062 5.42496 77.786 4.04002 73.4552 4.04002H61.8401V37.4621ZM69.5299 31.93V9.75575H72.7895C74.8707 9.77105 76.5158 10.5286 77.7248 12.0283C78.9337 13.5127 79.5382 15.8235 79.5382 18.9606V22.5645C79.5382 25.671 78.9414 28.0124 77.7477 29.5886C76.5694 31.1496 74.9166 31.93 72.7895 31.93H69.5299Z" fill="#B70808"/>
<path d="M90.0974 26.88C90.0974 30.3232 91.1609 33.0472 93.2881 35.0519C95.4152 37.0413 98.3993 38.036 102.24 38.036C105.117 38.036 107.413 37.5233 109.127 36.498C110.841 35.4574 112.057 34.0419 112.777 32.2514L106.533 30.2773C106.135 30.9965 105.569 31.5857 104.834 32.0448C104.115 32.4886 103.227 32.7105 102.172 32.7105C100.718 32.7105 99.6006 32.2131 98.8202 31.2184C98.055 30.2237 97.6724 28.8158 97.6724 26.9948V25.4109C97.6724 23.9724 98.0244 22.7634 98.7283 21.784C99.4476 20.8046 100.488 20.3149 101.85 20.3149C103.105 20.3149 104.039 20.6516 104.651 21.3249C105.278 21.9983 105.592 22.8476 105.592 23.8729V24.1025H94.321V28.0277H112.96V25.87C112.96 22.5033 111.996 19.8558 110.068 17.9276C108.155 15.9994 105.439 15.0353 101.919 15.0353C98.3381 15.0353 95.4688 16.0453 93.311 18.0654C91.1686 20.0701 90.0974 22.7634 90.0974 26.1454V26.88Z" fill="#B70808"/>
<path d="M116.036 37.4621H123.657V23.5515C124.024 22.7252 124.537 22.0671 125.195 21.5774C125.853 21.0724 126.595 20.8199 127.422 20.8199C128.401 20.8199 129.159 21.0877 129.694 21.6233C130.23 22.159 130.498 23.0618 130.498 24.332V37.4621H138.119V23.2531C138.119 20.3302 137.422 18.249 136.03 17.0094C134.637 15.7699 132.816 15.1501 130.567 15.1501C128.883 15.1501 127.445 15.4638 126.251 16.0913C125.057 16.7187 124.185 17.5451 123.634 18.5704H123.565L123.519 15.701H116.036V37.4621Z" fill="#B70808"/>
<path d="M142.205 37.4621H149.826V23.5745C150.193 22.7481 150.675 22.0824 151.272 21.5774C151.884 21.0724 152.603 20.8199 153.429 20.8199C154.378 20.8199 155.105 21.0801 155.61 21.6004C156.13 22.1207 156.391 23.0083 156.391 24.2631V37.4621H164.035V23.5515C164.402 22.7405 164.892 22.0824 165.504 21.5774C166.116 21.0724 166.835 20.8199 167.661 20.8199C168.61 20.8199 169.329 21.0801 169.819 21.6004C170.324 22.1207 170.577 23.0006 170.577 24.2402V37.4621H178.221V23.299C178.221 20.3761 177.563 18.2873 176.246 17.0324C174.93 15.7622 173.186 15.1272 171.013 15.1272C169.36 15.1272 167.853 15.4715 166.491 16.1601C165.129 16.8488 164.042 17.8129 163.231 19.0524H163.185C162.726 17.767 161.923 16.7952 160.775 16.1372C159.643 15.4791 158.288 15.1501 156.712 15.1501C155.166 15.1501 153.797 15.4715 152.603 16.1142C151.425 16.7416 150.476 17.6139 149.757 18.7311H149.665L149.642 15.701H142.205V37.4621Z" fill="#B70808"/>
<path d="M181.319 31.1725C181.319 33.3609 182 35.0136 183.362 36.1307C184.74 37.2479 186.584 37.8064 188.895 37.8064C190.823 37.8064 192.43 37.4698 193.715 36.7964C195.016 36.1078 195.919 35.3426 196.424 34.501C196.485 35.0519 196.577 35.5875 196.699 36.1078C196.837 36.6281 197.021 37.0795 197.25 37.4621H204.779V37.1407C204.473 36.5439 204.244 35.8476 204.091 35.0519C203.938 34.2408 203.861 33.3838 203.861 32.4809V22.8859C203.861 20.1619 202.996 18.1878 201.267 16.9635C199.553 15.724 197.005 15.1042 193.623 15.1042C190.272 15.1042 187.617 15.7393 185.658 17.0094C183.699 18.2796 182.72 19.9477 182.72 22.0136V22.5415L189.79 22.5645V22.1054C189.79 21.3096 190.065 20.6822 190.616 20.2231C191.167 19.764 191.993 19.5345 193.095 19.5345C194.228 19.5345 195.031 19.8023 195.505 20.3379C195.98 20.8735 196.217 21.6386 196.217 22.6334V23.9647H190.983C188.091 23.9647 185.757 24.6075 183.982 25.8929C182.207 27.1784 181.319 28.9383 181.319 31.1725ZM188.872 30.5986C188.872 29.6192 189.224 28.923 189.927 28.5098C190.631 28.0813 191.718 27.867 193.187 27.867H196.217V29.6345C196.217 30.6293 195.789 31.5168 194.932 32.2973C194.075 33.0625 193.095 33.445 191.993 33.445C190.968 33.445 190.188 33.2002 189.652 32.7105C189.132 32.2208 188.872 31.5168 188.872 30.5986Z" fill="#B70808"/>
<path d="M208.177 37.4621H215.981V24.4238C216.517 23.3985 217.259 22.5721 218.208 21.9447C219.157 21.302 220.128 20.9806 221.123 20.9806C221.597 20.9806 222.026 21.0112 222.408 21.0724C222.806 21.1183 223.143 21.1949 223.418 21.302V15.5403C223.265 15.4791 222.99 15.4179 222.592 15.3567C222.209 15.2955 221.804 15.2649 221.375 15.2649C220.182 15.2649 219.111 15.5786 218.162 16.206C217.228 16.8182 216.471 17.6063 215.889 18.5704H215.843L215.797 15.701H208.177V37.4621Z" fill="#B70808"/>
<path d="M225.852 37.4621H233.473V31.6087L248.852 15.701H240.198L233.473 23.1613V3.60388H225.852V37.4621ZM241.048 37.4621H250L238.66 21.9677L233.932 27.1784L241.048 37.4621Z" fill="#B70808"/>
<path d="M0 0H54.4466V41.2101H0V0Z" fill="white"/>
<path d="M23.5256 23.5256H54.4466V41.2101L23.5256 41.2101V23.5256Z" fill="#B70808"/>
<path d="M0 23.5256H17.6844V41.2101L0 41.2101V23.5256Z" fill="#B70808"/>
<path d="M0 0H17.6844V17.6844H0V0Z" fill="#B70808"/>
<path d="M23.5256 0H54.4466V17.6844H23.5256V0Z" fill="#B70808"/>
</svg>
