<svg width="31" height="31" viewBox="0 0 31 31" fill="none" xmlns="http://www.w3.org/2000/svg">
<path d="M12.4323 17.6959L13.5948 13.9823L10.5271 11.5927H14.2729L15.5 7.75004L16.6948 11.5927H20.4729L17.4052 13.9823L18.5354 17.6959L15.5 15.4032L12.4323 17.6959ZM7.87916 29.7084V19.8917C6.91041 18.8799 6.21614 17.7712 5.79634 16.5657C5.37655 15.3601 5.16666 14.1438 5.16666 12.9167C5.16666 9.98893 6.15693 7.53476 8.13749 5.55421C10.118 3.57365 12.5722 2.58337 15.5 2.58337C18.4278 2.58337 20.8819 3.57365 22.8625 5.55421C24.843 7.53476 25.8333 9.98893 25.8333 12.9167C25.8333 14.1438 25.6234 15.3601 25.2036 16.5657C24.7838 17.7712 24.0896 18.8799 23.1208 19.8917V29.7084L15.5 27.1573L7.87916 29.7084ZM15.5 21.3125C17.8465 21.3125 19.8325 20.4999 21.4578 18.8745C23.0831 17.2492 23.8958 15.2632 23.8958 12.9167C23.8958 10.5702 23.0831 8.58424 21.4578 6.95889C19.8325 5.33355 17.8465 4.52087 15.5 4.52087C13.1535 4.52087 11.1675 5.33355 9.54218 6.95889C7.91683 8.58424 7.10416 10.5702 7.10416 12.9167C7.10416 15.2632 7.91683 17.2492 9.54218 18.8745C11.1675 20.4999 13.1535 21.3125 15.5 21.3125ZM9.81666 26.9959L15.5 25.2198L21.1833 26.9959V21.474C20.3222 22.0983 19.3965 22.5504 18.4062 22.8302C17.416 23.1101 16.4472 23.25 15.5 23.25C14.5528 23.25 13.584 23.1101 12.5937 22.8302C11.6035 22.5504 10.6778 22.0983 9.81666 21.474V26.9959Z" fill="url(#paint0_linear_323_15)"/>
<defs>
<linearGradient id="paint0_linear_323_15" x1="15.5" y1="2.58337" x2="15.5" y2="29.7084" gradientUnits="userSpaceOnUse">
<stop stop-color="#B8B8B8"/>
<stop offset="1" stop-color="white"/>
</linearGradient>
</defs>
</svg>
